<mxfile host="app.diagrams.net" agent="Mozilla/5.0 (Windows NT 10.0; Win64; x64) AppleWebKit/537.36 (KHTML, like Gecko) Chrome/131.0.0.0 Safari/537.36" version="26.0.8">
  <diagram name="第 1 页" id="RtZNqCJzqBMIXwsQa_Uc">
    <mxGraphModel dx="1434" dy="833" grid="1" gridSize="10" guides="1" tooltips="1" connect="1" arrows="1" fold="1" page="1" pageScale="1" pageWidth="1169" pageHeight="827" math="0" shadow="0">
      <root>
        <mxCell id="0" />
        <mxCell id="1" parent="0" />
        <mxCell id="73vBffbtjohmTg6FEq4j-16" style="edgeStyle=orthogonalEdgeStyle;rounded=0;orthogonalLoop=1;jettySize=auto;html=1;" edge="1" parent="1" source="73vBffbtjohmTg6FEq4j-5">
          <mxGeometry relative="1" as="geometry">
            <mxPoint x="630" y="439" as="targetPoint" />
          </mxGeometry>
        </mxCell>
        <mxCell id="73vBffbtjohmTg6FEq4j-5" value="" style="points=[];aspect=fixed;html=1;align=center;shadow=0;dashed=0;fillColor=#FF6A00;strokeColor=none;shape=mxgraph.alibaba_cloud.kafka;" vertex="1" parent="1">
          <mxGeometry x="450" y="418" width="56.699999999999996" height="42" as="geometry" />
        </mxCell>
        <mxCell id="73vBffbtjohmTg6FEq4j-10" style="edgeStyle=orthogonalEdgeStyle;rounded=0;orthogonalLoop=1;jettySize=auto;html=1;exitX=1;exitY=0.5;exitDx=0;exitDy=0;" edge="1" parent="1" source="73vBffbtjohmTg6FEq4j-6" target="73vBffbtjohmTg6FEq4j-5">
          <mxGeometry relative="1" as="geometry" />
        </mxCell>
        <mxCell id="73vBffbtjohmTg6FEq4j-12" value="第一路行情" style="edgeLabel;html=1;align=center;verticalAlign=middle;resizable=0;points=[];" vertex="1" connectable="0" parent="73vBffbtjohmTg6FEq4j-10">
          <mxGeometry x="-0.4852" y="1" relative="1" as="geometry">
            <mxPoint as="offset" />
          </mxGeometry>
        </mxCell>
        <mxCell id="73vBffbtjohmTg6FEq4j-6" value="server" style="rounded=1;whiteSpace=wrap;html=1;" vertex="1" parent="1">
          <mxGeometry x="180" y="310" width="120" height="60" as="geometry" />
        </mxCell>
        <mxCell id="73vBffbtjohmTg6FEq4j-7" value="server" style="rounded=1;whiteSpace=wrap;html=1;" vertex="1" parent="1">
          <mxGeometry x="180" y="510" width="120" height="60" as="geometry" />
        </mxCell>
        <mxCell id="73vBffbtjohmTg6FEq4j-11" style="edgeStyle=orthogonalEdgeStyle;rounded=0;orthogonalLoop=1;jettySize=auto;html=1;exitX=1;exitY=0.5;exitDx=0;exitDy=0;entryX=0.529;entryY=1;entryDx=0;entryDy=0;entryPerimeter=0;" edge="1" parent="1" source="73vBffbtjohmTg6FEq4j-7" target="73vBffbtjohmTg6FEq4j-5">
          <mxGeometry relative="1" as="geometry" />
        </mxCell>
        <mxCell id="73vBffbtjohmTg6FEq4j-15" value="第二路行情" style="edgeLabel;html=1;align=center;verticalAlign=middle;resizable=0;points=[];" vertex="1" connectable="0" parent="73vBffbtjohmTg6FEq4j-11">
          <mxGeometry x="-0.6308" y="-2" relative="1" as="geometry">
            <mxPoint x="12" y="-2" as="offset" />
          </mxGeometry>
        </mxCell>
        <mxCell id="73vBffbtjohmTg6FEq4j-23" value="" style="whiteSpace=wrap;html=1;aspect=fixed;" vertex="1" parent="1">
          <mxGeometry x="630" y="326" width="226" height="226" as="geometry" />
        </mxCell>
        <mxCell id="73vBffbtjohmTg6FEq4j-24" value="flink 引擎清洗" style="text;html=1;align=center;verticalAlign=middle;resizable=0;points=[];autosize=1;strokeColor=none;fillColor=none;" vertex="1" parent="1">
          <mxGeometry x="680" y="268" width="100" height="30" as="geometry" />
        </mxCell>
        <mxCell id="73vBffbtjohmTg6FEq4j-25" value="" style="points=[];aspect=fixed;html=1;align=center;shadow=0;dashed=0;fillColor=#FF6A00;strokeColor=none;shape=mxgraph.alibaba_cloud.kafka;" vertex="1" parent="1">
          <mxGeometry x="1030" y="418" width="56.699999999999996" height="42" as="geometry" />
        </mxCell>
      </root>
    </mxGraphModel>
  </diagram>
</mxfile>
